<?xml version="1.0" standalone="no"?>
<!DOCTYPE svg PUBLIC "-//W3C//DTD SVG 20010904//EN"
 "http://www.w3.org/TR/2001/REC-SVG-20010904/DTD/svg10.dtd">
<svg version="1.0" xmlns="http://www.w3.org/2000/svg"
 width="800.000000pt" height="800.000000pt" viewBox="0 0 800.000000 800.000000"
 preserveAspectRatio="xMidYMid meet">
<metadata>
Created by potrace 1.11, written by Peter Selinger 2001-2013
</metadata>
<g transform="translate(0.000000,800.000000) scale(0.100000,-0.100000)"
fill="#000000" stroke="none">
<path d="M4103 7877 c-69 -67 -150 -144 -178 -172 -29 -27 -86 -82 -127 -122
-110 -106 -105 -94 -56 -146 24 -24 90 -95 148 -157 58 -62 134 -143 170 -180
36 -37 89 -93 118 -124 l54 -56 166 164 c92 91 213 210 270 265 l102 100 -112
115 c-62 63 -184 187 -270 275 l-158 160 -127 -122z"/>
<path d="M2958 7151 c-1 -4 -52 -46 -113 -91 -113 -85 -129 -101 -116 -110 4
-3 18 -21 31 -40 54 -81 214 -290 222 -290 4 0 8 -4 8 -10 0 -24 262 -285 362
-360 11 -8 34 -26 52 -40 147 -119 477 -283 631 -315 11 -3 49 -11 85 -19 145
-34 204 -40 385 -40 179 0 234 6 350 35 151 39 309 106 471 200 46 27 220 150
250 176 10 10 46 40 79 68 33 27 105 94 160 148 l100 99 -55 49 c-30 27 -60
52 -65 56 -6 5 -29 24 -51 43 -22 19 -60 51 -85 72 -24 20 -55 46 -69 58 -14
12 -42 36 -63 53 -21 18 -49 41 -61 52 -35 31 -76 65 -141 120 -33 28 -71 60
-85 73 l-25 23 -28 -33 c-15 -18 -31 -38 -35 -43 -22 -33 -123 -144 -166 -184
-27 -25 -57 -53 -66 -61 -126 -118 -375 -251 -517 -276 -13 -2 -33 -6 -45 -8
-135 -26 -364 -26 -483 -2 -118 24 -242 68 -340 119 -73 38 -196 119 -214 141
-7 9 -17 16 -22 16 -4 0 -19 10 -31 23 -13 12 -44 40 -68 63 -48 43 -107 106
-180 192 -44 52 -55 60 -62 43z"/>
<path d="M2118 6155 c-2 -2 -52 -5 -113 -8 -60 -3 -128 -8 -150 -11 -22 -3
-56 -8 -75 -10 -19 -3 -57 -10 -85 -16 -27 -6 -62 -13 -77 -15 -15 -2 -37 -9
-48 -15 -11 -6 -20 -8 -20 -6 0 3 -18 -1 -40 -9 -22 -8 -40 -12 -40 -9 0 2
-13 -2 -30 -11 -16 -9 -30 -13 -30 -11 0 4 -85 -28 -155 -58 -114 -50 -135
-61 -135 -69 0 -5 6 -23 14 -40 7 -18 21 -52 31 -77 10 -25 26 -63 36 -85 9
-22 38 -92 63 -155 26 -63 54 -130 62 -147 8 -18 26 -62 39 -98 14 -36 29 -73
34 -82 5 -10 16 -34 23 -53 8 -19 21 -50 29 -67 l14 -33 95 48 c53 26 113 55
135 64 93 40 221 90 239 94 11 2 40 10 66 19 26 9 56 18 68 20 12 3 30 7 40 9
44 12 161 35 197 40 126 16 161 19 275 21 435 7 685 -151 736 -465 20 -119 5
-307 -32 -418 -63 -185 -220 -389 -388 -501 -13 -9 -43 -29 -67 -46 -61 -41
-266 -151 -299 -160 -3 -1 -14 -5 -25 -10 -11 -4 -45 -18 -75 -30 -52 -22
-198 -72 -230 -80 -8 -2 -27 -8 -42 -12 l-27 -8 21 -50 c23 -56 38 -92 64
-150 9 -22 18 -42 19 -45 1 -3 6 -16 12 -30 6 -14 27 -63 46 -110 20 -47 44
-103 53 -125 10 -22 18 -43 18 -46 1 -3 11 -28 23 -55 23 -51 55 -125 58 -134
1 -3 9 -23 18 -44 23 -53 37 -68 51 -57 6 5 40 24 76 43 146 76 228 131 365
243 96 79 224 203 282 274 15 19 45 53 65 75 21 23 38 47 38 54 0 6 4 12 9 12
6 0 18 14 28 30 26 44 19 48 132 -75 20 -22 56 -65 81 -95 25 -30 47 -57 50
-60 3 -3 21 -27 39 -55 19 -27 38 -52 41 -55 3 -3 17 -23 30 -45 13 -22 32
-49 42 -59 10 -11 18 -25 18 -31 0 -6 11 -27 25 -47 33 -48 125 -236 154 -313
13 -33 26 -69 31 -80 7 -19 34 -104 36 -115 0 -3 4 -12 7 -20 4 -8 9 -26 11
-40 3 -14 10 -43 15 -65 5 -22 8 -41 6 -44 -2 -2 0 -11 4 -20 10 -18 23 -99
25 -148 1 -18 3 -33 6 -33 17 0 12 -388 -6 -471 -3 -13 -7 -33 -9 -44 -3 -11
-7 -31 -10 -44 -2 -13 -12 -47 -22 -75 -9 -28 -18 -53 -18 -56 -1 -3 -11 -27
-23 -53 -12 -27 -22 -51 -22 -53 0 -12 -106 -174 -143 -219 -60 -71 -152 -160
-222 -211 -33 -24 -64 -48 -70 -52 -20 -16 -181 -92 -204 -97 -12 -2 -29 -9
-37 -16 -8 -6 -14 -9 -14 -6 0 3 -24 -1 -52 -9 -64 -17 -90 -22 -188 -29 -41
-4 -76 -8 -78 -10 -2 -2 -17 1 -33 5 -17 5 -31 5 -35 -1 -3 -5 -10 -7 -15 -3
-6 3 -39 8 -75 10 -71 3 -122 10 -199 26 -27 5 -63 12 -80 15 -16 3 -38 9 -48
14 -9 5 -17 7 -17 5 0 -8 -199 63 -279 100 -73 33 -231 121 -241 133 -3 3 -17
12 -31 19 -14 8 -39 25 -54 38 -15 13 -31 24 -34 24 -3 0 -20 13 -38 28 -17
15 -53 45 -80 67 -76 63 -235 220 -304 303 -35 41 -69 80 -74 86 -6 6 -45 58
-88 116 -43 58 -86 116 -97 130 -11 14 -20 30 -20 37 0 6 -4 13 -8 15 -34 14
-268 454 -351 659 -17 42 -36 90 -42 105 -7 16 -14 38 -16 48 -2 11 -7 24 -12
30 -10 13 -112 330 -142 441 -21 82 -25 97 -54 220 -20 88 -74 359 -80 404 -2
19 -7 36 -9 39 -3 2 -47 -8 -98 -22 -51 -15 -102 -29 -113 -32 -11 -2 -33 -9
-48 -15 -27 -12 -28 -14 -22 -58 3 -25 7 -53 7 -61 0 -17 26 -229 33 -275 3
-16 7 -43 10 -60 8 -48 17 -98 21 -125 5 -29 34 -166 40 -195 3 -11 7 -29 9
-40 2 -11 6 -30 9 -42 3 -13 8 -32 10 -42 3 -10 14 -55 26 -98 12 -44 23 -86
24 -94 2 -8 5 -21 8 -29 4 -8 27 -80 53 -160 25 -80 53 -159 61 -177 8 -17 14
-33 14 -36 0 -2 8 -22 17 -43 9 -22 17 -41 18 -44 37 -126 268 -568 382 -732
18 -26 33 -50 33 -53 0 -3 5 -11 10 -18 6 -7 52 -68 102 -137 51 -69 102 -136
114 -150 204 -239 351 -386 514 -515 41 -33 77 -62 80 -65 3 -3 32 -23 65 -45
33 -22 61 -43 63 -47 2 -5 9 -8 16 -8 7 0 21 -8 32 -17 40 -35 278 -159 389
-201 33 -13 69 -28 80 -32 25 -11 212 -68 245 -74 14 -3 41 -9 60 -14 19 -5
38 -9 43 -10 62 -8 132 -20 132 -22 0 -6 177 -14 335 -14 190 0 284 6 365 24
22 5 56 12 75 15 19 3 53 11 75 16 22 6 47 12 55 14 32 6 200 74 261 106 262
135 492 360 616 603 21 39 38 73 38 76 1 3 7 19 14 35 36 88 97 312 87 322 -2
2 0 19 5 36 5 17 11 73 14 125 3 51 7 98 11 103 3 5 1 9 -4 9 -6 0 -7 14 -2
34 4 19 6 37 4 39 -2 2 -6 46 -9 98 -4 81 -15 164 -40 294 -14 77 -30 138 -68
255 -12 36 -22 67 -22 70 -1 3 -7 19 -14 35 -7 17 -15 39 -17 49 -2 11 -8 24
-14 30 -5 5 -10 16 -10 23 0 7 -28 71 -62 141 -33 70 -60 130 -60 135 1 4 -1
7 -6 7 -4 0 -16 20 -27 45 -11 25 -23 45 -27 45 -5 0 -8 5 -8 11 0 7 -16 36
-35 65 -19 29 -35 55 -35 59 0 3 -6 12 -12 20 -7 7 -31 43 -53 79 -22 36 -43
66 -47 66 -5 0 -8 4 -8 10 0 5 -20 38 -45 71 l-46 62 67 43 c36 24 70 44 74
44 5 0 10 4 12 9 3 9 275 153 281 149 1 -1 29 8 62 20 198 73 392 73 480 0 88
-72 154 -207 171 -352 3 -21 9 -57 13 -80 4 -22 9 -180 10 -351 3 -352 7 -490
16 -590 4 -38 8 -88 9 -110 2 -22 6 -51 9 -65 4 -14 9 -43 12 -65 25 -178 111
-411 189 -509 73 -93 162 -161 279 -214 37 -17 67 -29 67 -27 0 2 21 -2 48
-10 88 -25 196 -35 337 -31 77 2 154 7 170 11 17 4 41 8 55 10 14 2 25 4 25 5
0 1 10 3 23 6 50 9 189 58 246 87 159 80 346 235 461 380 133 170 275 436 349
657 43 128 98 334 110 410 3 19 10 58 15 87 6 29 13 74 16 100 4 26 8 59 11
73 2 14 6 61 9 105 3 44 8 100 12 125 15 114 7 766 -12 915 -2 17 -6 53 -9 80
-12 106 -16 131 -21 155 -7 38 -18 103 -20 125 -1 11 -5 31 -9 43 -5 13 -9 34
-11 45 -2 12 -6 33 -10 47 -4 14 -10 41 -15 60 -15 65 -18 75 -29 103 -6 15
-13 38 -15 50 -7 37 -93 242 -127 304 -56 101 -136 216 -199 285 -149 163
-373 287 -590 325 -14 2 -36 7 -50 10 -36 8 -393 12 -405 5 -5 -4 -19 -7 -30
-8 -96 -7 -241 -52 -360 -111 -49 -25 -92 -48 -95 -51 -3 -4 -27 -23 -55 -42
-91 -63 -206 -189 -280 -305 -42 -65 -118 -215 -130 -255 -4 -14 -11 -29 -15
-35 -10 -14 -58 -164 -85 -265 -1 -3 -7 -32 -14 -65 -23 -112 -22 -112 -94
-104 -67 6 -206 3 -253 -6 -16 -3 -45 -7 -65 -10 -131 -18 -372 -112 -544
-213 -65 -38 -211 -138 -226 -154 -9 -10 -21 -18 -28 -18 -6 0 -11 -3 -11 -8
0 -4 -11 -14 -24 -22 -22 -14 -94 -76 -200 -172 -23 -21 -44 -38 -47 -38 -7 0
-35 24 -106 91 l-53 50 16 37 c37 85 73 202 84 272 6 41 14 86 16 100 9 52 2
340 -10 405 -3 17 -7 50 -10 75 -14 114 -58 275 -103 380 -26 62 -87 185 -93
190 -3 3 -22 30 -41 61 -93 150 -265 324 -419 426 -75 49 -251 141 -283 147
-7 2 -19 6 -27 9 -26 11 -135 40 -147 40 -7 0 -13 3 -13 6 0 3 -10 7 -22 7
-23 2 -73 10 -115 19 -12 3 -70 8 -130 11 -59 3 -120 7 -135 9 -15 1 -29 1
-30 0z m4401 -1220 c142 -19 298 -82 406 -165 27 -21 175 -168 204 -204 35
-44 101 -149 101 -163 0 -7 3 -13 8 -13 6 0 53 -91 57 -110 1 -3 9 -22 18 -43
20 -46 67 -192 73 -227 3 -14 6 -30 9 -37 5 -14 33 -181 41 -243 8 -69 14
-470 6 -470 -4 0 -6 -20 -6 -45 1 -25 -2 -64 -6 -88 -5 -23 -11 -64 -15 -91
-3 -27 -8 -53 -10 -57 -3 -4 -7 -22 -9 -40 -13 -94 -98 -336 -158 -448 -35
-65 -89 -154 -99 -161 -3 -3 -8 -10 -10 -16 -18 -49 -215 -247 -304 -304 -59
-39 -158 -92 -175 -95 -3 -1 -23 -7 -45 -13 -22 -6 -43 -12 -47 -12 -4 -1 -22
-6 -40 -11 -88 -26 -264 -28 -363 -4 -89 21 -205 101 -266 185 -64 87 -125
261 -143 410 -3 19 -5 35 -6 35 -8 0 -11 185 -14 700 -3 545 -6 652 -21 745
-28 181 -95 309 -206 389 l-36 27 37 68 c20 37 45 77 54 87 9 11 16 21 16 24
0 14 192 215 205 215 4 0 21 11 39 25 18 14 37 25 41 25 5 0 16 6 24 14 46 39
280 108 401 119 49 4 184 -1 239 -8z"/>
</g>
</svg>
