<?xml version="1.0" encoding="utf-8"?>
<!-- Svg Vector Icons : http://www.onlinewebfonts.com/icon -->
<!DOCTYPE svg PUBLIC "-//W3C//DTD SVG 1.1//EN" "http://www.w3.org/Graphics/SVG/1.1/DTD/svg11.dtd">
<svg version="1.1" xmlns="http://www.w3.org/2000/svg" xmlns:xlink="http://www.w3.org/1999/xlink" x="0px" y="0px" viewBox="0 0 1000 1000" enable-background="new 0 0 1000 1000" xml:space="preserve">
<metadata> Svg Vector Icons : http://www.onlinewebfonts.com/icon </metadata>
<g><g><g><path fill="#381f07" d="M500,990c270.6,0,490-219.4,490-490c0-270.6-219.4-490-490-490C229.4,10,10,229.4,10,500C10,770.6,229.4,990,500,990z M202.6,488.9l91.8-123c3.5-4.7,9-7.4,14.9-7.4h473.3c10.2,0,18.6,8.3,18.6,18.6V623c0,10.3-8.3,18.6-18.6,18.6H309.2c-5.9,0-11.4-2.8-14.9-7.4l-91.8-123C197.6,504.5,197.6,495.5,202.6,488.9z"/><path d="M503.9,565.1h71c8.7,0,15-2.5,15-11.9c0-9.4-6.3-11.9-15-11.9h-58.7v-31.4h50.3c7.8,0,13.9-2.2,13.9-11.4c0-9.2-6.2-11.4-13.9-11.4h-50.3v-28.2h57.3c8.7,0,15-2.5,15-11.9c0-9.4-6.3-11.9-15-11.9h-69.6c-10.5,0-17.3,4.2-17.3,17.3v95.4C486.6,560.9,493.5,565.1,503.9,565.1z"/><path d="M410.7,546.4c-30,0-25.8-23.5-41.9-23.5c-7.2,0-12.5,5.1-12.5,12.3c0,14.1,16.8,32.9,54.4,32.9c35.8,0,53.5-17.5,53.5-41c0-15.2-6.8-31.3-34-37.4l-24.8-5.6c-9.4-2.2-20.2-5.1-20.2-14.1c0-9.1,7.6-15.4,21.3-15.4c27.7,0,25.1,19.3,38.9,19.3c7.2,0,13.5-4.3,13.5-11.7c0-17.4-27.3-30.4-50.4-30.4c-25.1,0-51.9,10.8-51.9,39.7c0,13.9,4.9,28.8,31.8,35.6l33.4,8.5c10.1,2.5,12.7,8.3,12.7,13.5C434.6,538,426.1,546.4,410.7,546.4z"/><path d="M669.6,568.1c44.5,0,65.8-33.1,65.8-69.7c0-38.1-23.1-66.5-65.8-66.5c-42.6,0-65.8,28.3-65.8,66.5C603.9,537.8,623,568.1,669.6,568.1z M669.6,455.7c24.2,0,36.1,17.7,36.1,42.6c0,24.9-9.2,45.9-36.1,45.9c-27.8,0-36.1-21-36.1-45.9C633.5,473.4,645.4,455.7,669.6,455.7z"/><circle cx="291.7" cy="500" r="23.2"/></g></g><g></g><g></g><g></g><g></g><g></g><g></g><g></g><g></g><g></g><g></g><g></g><g></g><g></g><g></g><g></g></g>
</svg>