<svg xmlns="http://www.w3.org/2000/svg" style="display: none;">
  <defs>
    <symbol id="icon-alert" viewBox="0 0 512 512">
        <path d="M507.494,426.066L282.864,53.537c-5.677-9.415-15.87-15.172-26.865-15.172c-10.995,0-21.188,5.756-26.865,15.172
			L4.506,426.066c-5.842,9.689-6.015,21.774-0.451,31.625c5.564,9.852,16.001,15.944,27.315,15.944h449.259
			c11.314,0,21.751-6.093,27.315-15.944C513.508,447.839,513.336,435.755,507.494,426.066z M256.167,167.227
			c12.901,0,23.817,7.278,23.817,20.178c0,39.363-4.631,95.929-4.631,135.292c0,10.255-11.247,14.554-19.186,14.554
			c-10.584,0-19.516-4.3-19.516-14.554c0-39.363-4.63-95.929-4.63-135.292C232.021,174.505,242.605,167.227,256.167,167.227z
			 M256.498,411.018c-14.554,0-25.471-11.908-25.471-25.47c0-13.893,10.916-25.47,25.471-25.47c13.562,0,25.14,11.577,25.14,25.47
			C281.638,399.11,270.06,411.018,256.498,411.018z" />
    </symbol>

    <symbol id="player-play" viewBox="0 0 54 54">
      <g>
        <path class="playerBtnColorA" d="M39.544,27.841L18.456,40.016C17.809,40.389,17,39.922,17,39.175V14.825
    c0-0.747,0.809-1.215,1.456-0.841l21.087,12.175C40.191,26.533,40.191,27.467,39.544,27.841z" />
        <path class="playerBtnColorB" d="M17.973,41.147c-1.088,0-1.973-0.885-1.973-1.973v-24.35c0-1.088,0.885-1.973,1.973-1.973
    c0.343,0,0.683,0.092,0.984,0.266l21.087,12.175c0.617,0.356,0.986,0.995,0.986,1.707s-0.369,1.351-0.986,1.707L18.957,40.882
    C18.656,41.056,18.315,41.147,17.973,41.147z M17.957,14.851L18,39.125l21.043-12.15L17.957,14.851z" />
      </g>
    </symbol>

    <symbol id="player-playaction" viewBox="0 0 54 54">
      <defs>  
        <linearGradient id="logo-gradient" x1="50%" y1="0%" x2="50%" y2="100%" > 
            <stop offset="0%" stop-color="#7A5FFF">
                <animate attributeName="stop-color" values="#7A5FFF; #01FF89; #7A5FFF" dur="4s" repeatCount="indefinite"></animate>
            </stop>
            <stop offset="100%" stop-color="#01FF89">
                <animate attributeName="stop-color" values="#01FF89; #7A5FFF; #01FF89" dur="4s" repeatCount="indefinite"></animate>
            </stop>
        </linearGradient> 
      </defs>
      <g>
        <path fill="url('#logo-gradient')" d="M39.544,27.841L18.456,40.016C17.809,40.389,17,39.922,17,39.175V14.825
    c0-0.747,0.809-1.215,1.456-0.841l21.087,12.175C40.191,26.533,40.191,27.467,39.544,27.841z" />
        <path fill="url('#logo-gradient')" d="M17.973,41.147c-1.088,0-1.973-0.885-1.973-1.973v-24.35c0-1.088,0.885-1.973,1.973-1.973
    c0.343,0,0.683,0.092,0.984,0.266l21.087,12.175c0.617,0.356,0.986,0.995,0.986,1.707s-0.369,1.351-0.986,1.707L18.957,40.882
    C18.656,41.056,18.315,41.147,17.973,41.147z M17.957,14.851L18,39.125l21.043-12.15L17.957,14.851z" />
      </g>
    </symbol>

    <symbol id="player-pause" viewBox="0 0 54 54">
      <path class="playerBtnColorB" d="M 19.045455,13.363636 C 16.536364,13.363636 14.5,15.4 14.5,17.909091 v 18.181818 c 0,2.509091 2.036364,4.545455 4.545455,4.545455 2.509091,0 4.545455,-2.036364 4.545455,-4.545455 V 17.909091 c 0,-2.509091 -2.036364,-4.545455 -4.545455,-4.545455 z"
      />
      <path class="playerBtnColorB" d="m 34.954546,13.363636 c -2.509091,0 -4.545456,2.036364 -4.545456,4.545455 v 18.181818 c 0,2.509091 2.036365,4.545455 4.545456,4.545455 C 37.463636,40.636364 39.5,38.6 39.5,36.090909 V 17.909091 C 39.5,15.4 37.463636,13.363636 34.954546,13.363636 Z"
      />
    </symbol>

    <symbol id="lense" viewBox="0 0 30 30">
        <path class="lenseIcon" d="M28.344,25.518l-6.114-6.115c1.486-2.067,2.303-4.537,2.303-7.137c0-3.275-1.275-6.355-3.594-8.672
		C18.625,1.278,15.543,0,12.266,0C8.99,0,5.909,1.275,3.593,3.594C1.277,5.909,0.001,8.99,0.001,12.266
		c0,3.276,1.275,6.356,3.592,8.674c2.316,2.316,5.396,3.594,8.673,3.594c2.599,0,5.067-0.813,7.136-2.303l6.114,6.115
		c0.392,0.391,0.902,0.586,1.414,0.586c0.513,0,1.024-0.195,1.414-0.586C29.125,27.564,29.125,26.299,28.344,25.518z M6.422,18.111
		c-1.562-1.562-2.421-3.639-2.421-5.846S4.86,7.983,6.422,6.421c1.561-1.562,3.636-2.422,5.844-2.422s4.284,0.86,5.845,2.422
		c1.562,1.562,2.422,3.638,2.422,5.845s-0.859,4.283-2.422,5.846c-1.562,1.562-3.636,2.42-5.845,2.42S7.981,19.672,6.422,18.111z" />
    </symbol>

  </defs>
</svg>
