<svg xmlns="http://www.w3.org/2000/svg" style="display: none;">
  <defs>
    <symbol id="icon-alert" viewBox="0 0 512 512">
        <path d="M507.494,426.066L282.864,53.537c-5.677-9.415-15.87-15.172-26.865-15.172c-10.995,0-21.188,5.756-26.865,15.172
			L4.506,426.066c-5.842,9.689-6.015,21.774-0.451,31.625c5.564,9.852,16.001,15.944,27.315,15.944h449.259
			c11.314,0,21.751-6.093,27.315-15.944C513.508,447.839,513.336,435.755,507.494,426.066z M256.167,167.227
			c12.901,0,23.817,7.278,23.817,20.178c0,39.363-4.631,95.929-4.631,135.292c0,10.255-11.247,14.554-19.186,14.554
			c-10.584,0-19.516-4.3-19.516-14.554c0-39.363-4.63-95.929-4.63-135.292C232.021,174.505,242.605,167.227,256.167,167.227z
			 M256.498,411.018c-14.554,0-25.471-11.908-25.471-25.47c0-13.893,10.916-25.47,25.471-25.47c13.562,0,25.14,11.577,25.14,25.47
			C281.638,399.11,270.06,411.018,256.498,411.018z" />
    </symbol>

    <symbol id="icon-new" viewBox="0 0 48 48">
      <path d="M0 0h48v48H0z" fill="none"/>
      <path d="M46 24l-4.88-5.56.68-7.37-7.22-1.63-3.78-6.36L24 6l-6.8-2.92-3.78 6.36-7.22 1.63.68 7.37L2 24l4.88 5.56-.68 7.37 7.22 1.63 3.78 6.36L24 42l6.8 2.92 3.78-6.36 7.22-1.63-.68-7.37L46 24zM26 34h-4v-4h4v4zm0-8h-4V14h4v12z"/>
    </symbol>

    <symbol id="icon-promo" viewBox="0 0 222.923 222.923">
    <g>
      <path d="M141.967,29.675c-7.299,0-13.5,5.938-13.5,13.236v5.833c-7,7.07-23.773,19.15-51.799,27.791
        c-19.305,5.952-52.925,9.344-59.058,9.924c-0.305-0.431-0.548-0.845-0.926-1.228c-1.81-1.834-4.18-2.853-6.818-2.869
        c-5.283,0-9.587,4.298-9.621,9.582L0,131.531c-0.017,2.576,0.976,5.117,2.786,6.95c1.811,1.834,4.231,2.981,6.807,2.981h0.062
        c2.645,0,5.049-1.189,6.795-2.927c0.518,4.872,2.079,9.561,4.659,13.898c4.704,7.907,12.207,13.482,21.125,15.746
        c2.784,0.708,5.643,1.052,8.497,1.052c14.011,0,26.043-8.448,31.353-21.062c24.733,8.475,39.382,19.426,46.382,26.019v5.824
        c0,7.299,6.201,13.236,13.5,13.236s13.5-5.938,13.5-13.236v-137.1C155.467,35.613,149.265,29.675,141.967,29.675z M9.655,138.3
        L9.655,138.3v0.002V138.3z M50.731,148.679c-1.15,0-2.309-0.146-3.442-0.434c-3.601-0.915-6.63-3.178-8.529-6.37
        c-0.6-1.008-1.048-2.075-1.374-3.17c7.661,1.016,16.486,2.36,24.728,4.021C59.571,146.372,55.374,148.679,50.731,148.679z"/>
      <path d="M212.261,76.302c-3.22-4.67-9.615-5.844-14.282-2.626c-4.669,3.219-5.845,9.613-2.626,14.282
        c4.601,6.674,7.032,14.76,7.032,23.383c0,8.592-2.542,16.963-7.158,23.57c-3.248,4.649-2.112,11.051,2.537,14.299
        c1.791,1.251,3.842,1.852,5.872,1.852c3.24,0,6.43-1.53,8.427-4.389c7.104-10.169,10.859-22.387,10.859-35.332
        C222.923,98.535,219.236,86.419,212.261,76.302z"/>
      <path d="M186.17,87.618c-3.219-4.67-9.614-5.844-14.282-2.626c-4.669,3.219-5.845,9.613-2.626,14.282
        c2.334,3.386,3.619,7.688,3.619,12.113c0,4.474-1.308,8.81-3.683,12.208c-3.249,4.648-2.113,11.051,2.535,14.299
        c1.791,1.252,3.842,1.853,5.873,1.853c3.24,0,6.429-1.53,8.426-4.388c4.832-6.914,7.386-15.203,7.386-23.972
        C193.418,102.715,190.912,94.495,186.17,87.618z"/>
    </g>
    </symbol>

    <symbol id="icon-fav" viewBox="0 0 48 48">
      <path d="M0 0h48v48h-48z" fill="none"/><path d="M24 42.7l-2.9-2.63c-10.3-9.35-17.1-15.52-17.1-23.07 0-6.17 4.83-11 11-11 3.48 0 6.82 1.62 9 4.17 2.18-2.55 5.52-4.17 9-4.17 6.17 0 11 4.83 11 11 0 7.55-6.8 13.72-17.1 23.07l-2.9 2.63z"/>
    </symbol>

    <symbol id="lense" viewBox="0 0 30 30">
        <path class="lenseIcon" d="M28.344,25.518l-6.114-6.115c1.486-2.067,2.303-4.537,2.303-7.137c0-3.275-1.275-6.355-3.594-8.672
		C18.625,1.278,15.543,0,12.266,0C8.99,0,5.909,1.275,3.593,3.594C1.277,5.909,0.001,8.99,0.001,12.266
		c0,3.276,1.275,6.356,3.592,8.674c2.316,2.316,5.396,3.594,8.673,3.594c2.599,0,5.067-0.813,7.136-2.303l6.114,6.115
		c0.392,0.391,0.902,0.586,1.414,0.586c0.513,0,1.024-0.195,1.414-0.586C29.125,27.564,29.125,26.299,28.344,25.518z M6.422,18.111
		c-1.562-1.562-2.421-3.639-2.421-5.846S4.86,7.983,6.422,6.421c1.561-1.562,3.636-2.422,5.844-2.422s4.284,0.86,5.845,2.422
		c1.562,1.562,2.422,3.638,2.422,5.845s-0.859,4.283-2.422,5.846c-1.562,1.562-3.636,2.42-5.845,2.42S7.981,19.672,6.422,18.111z" />
    </symbol>

    <symbol id="hamburger" viewbox="0 0 130 130">
      <circle class="hamburgerBG" cx="64" cy="64" r="64" />
      <g>
        <path class="hamburger" d="M103,29H25c-0.6,0-1,0.4-1,1v12c0,0.6,0.4,1,1,1h78c0.6,0,1-0.4,1-1V30C104,29.4,103.6,29,103,29z"/>
        <path class="hamburger" d="M103,57H25c-0.6,0-1,0.4-1,1v12c0,0.6,0.4,1,1,1h78c0.6,0,1-0.4,1-1V58C104,57.4,103.6,57,103,57z"/>
        <path class="hamburger" d="M103,85H25c-0.6,0-1,0.4-1,1v12c0,0.6,0.4,1,1,1h78c0.6,0,1-0.4,1-1V86C104,85.4,103.6,85,103,85z"/>
      </g>
    </symbol>
  </defs>
</svg>
