<?xml version="1.0" encoding="UTF-8" standalone="no"?>
<!-- Created with Inkscape (http://www.inkscape.org/) -->
<svg xmlns:dc="http://purl.org/dc/elements/1.1/" xmlns:cc="http://web.resource.org/cc/" xmlns:rdf="http://www.w3.org/1999/02/22-rdf-syntax-ns#" xmlns:svg="http://www.w3.org/2000/svg" xmlns="http://www.w3.org/2000/svg" xmlns:sodipodi="http://sodipodi.sourceforge.net/DTD/sodipodi-0.dtd" xmlns:inkscape="http://www.inkscape.org/namespaces/inkscape" viewBox="0 0 550 70" id="svg5981" sodipodi:version="0.32" inkscape:version="0.44+devel" sodipodi:modified="true" version="1.0">
  <defs id="defs5983"/>
  <sodipodi:namedview id="base" borderopacity="1.0" gridtolerance="10000" guidetolerance="10" objecttolerance="10" inkscape:pageopacity="0.0" inkscape:pageshadow="2" inkscape:zoom="0.35" inkscape:cx="375" inkscape:cy="520" inkscape:document-units="px" inkscape:current-layer="layer1" inkscape:window-width="919" inkscape:window-height="568" inkscape:window-x="22" inkscape:window-y="29"/>
  <g inkscape:label="Layer 1" inkscape:groupmode="layer" id="layer1" transform="translate(-724.8834,-598.5139)">
    <path style="opacity:1;fill: #575946;fill-opacity:1;stroke:none;stroke-width:1.60000002;stroke-linecap:butt;stroke-linejoin:miter;stroke-miterlimit:4;stroke-opacity:1;display:inline" d="M 841.25884,598.51403 C 841.19734,598.51155 841.07184,598.54708 841.00884,598.54528 C 836.59694,598.41948 828.59484,599.73753 820.66514,601.92028 C 812.33294,604.21382 804.31094,607.97127 795.25884,610.85778 C 791.17104,608.93245 787.01414,607.09613 782.85264,605.60778 C 775.60594,603.01608 768.60184,601.32653 763.10264,601.32653 C 761.73594,601.32653 760.40154,601.41249 759.10264,601.57653 C 757.80354,601.74057 756.52524,601.98424 755.32134,602.29528 C 752.91354,602.91737 750.71524,603.8124 748.85264,604.92028 C 745.52954,606.89674 743.31874,609.58431 742.85264,612.60778 C 740.95694,612.67101 739.14894,612.77108 737.63384,612.95153 C 734.04114,613.37941 731.44304,614.10056 729.57134,615.04528 C 728.63554,615.51764 727.87474,616.04373 727.25884,616.60778 C 724.79514,618.86397 724.88384,621.70262 724.88384,623.45153 C 724.88384,624.62774 725.46864,625.9408 726.54014,627.38903 C 727.61144,628.83726 729.20734,630.38054 731.38384,631.79528 C 732.47214,632.50265 733.68974,633.17925 735.07134,633.79528 C 737.83464,635.02734 741.19664,636.0206 745.19634,636.54528 C 747.19624,636.80762 749.37164,636.95153 751.69634,636.95153 C 753.88404,636.95153 756.31444,636.71947 758.85264,636.38903 C 767.17554,635.30548 776.95614,632.70457 785.88384,629.92028 C 787.38554,629.45195 788.47704,629.04693 789.91514,628.57653 C 791.13994,629.13308 792.38884,629.64638 793.60264,630.20153 C 799.39694,632.8518 805.03414,635.43346 810.29014,637.63903 L 810.91514,636.17028 C 805.69604,633.98017 800.05584,631.38421 794.25884,628.73278 C 793.56964,628.41754 792.85874,628.11162 792.16514,627.79528 C 800.79014,624.90927 808.23134,622.19718 810.50884,621.38903 C 810.74414,621.30555 811.71454,620.96456 812.00884,620.85778 C 816.76194,623.00198 821.75054,625.08669 826.72764,626.82653 C 830.82564,628.25907 834.76864,629.46682 838.25884,630.35778 C 841.74904,631.24874 844.78524,631.82224 847.04014,631.92028 C 851.53374,632.11566 857.15234,630.75672 861.66514,628.29528 C 862.79324,627.67992 863.83584,626.98958 864.79014,626.23278 C 865.74434,625.47598 866.58534,624.66091 867.29014,623.76403 C 868.69944,621.97026 869.53934,619.85692 869.38384,617.57653 C 869.08644,613.21398 866.75404,610.23889 863.41514,608.48278 C 861.23684,607.33717 858.56374,606.77713 855.75884,606.42028 C 855.12234,603.63623 853.67304,601.67555 851.54014,600.51403 C 850.03534,599.69458 848.19754,599.24664 846.16514,598.95153 C 844.57174,598.64264 843.00384,598.53152 841.57134,598.54528 C 841.47344,598.54622 841.35524,598.51194 841.25884,598.51403 z M 841.25884,600.10778 C 841.27034,600.10828 841.27854,600.10727 841.29014,600.10778 C 843.04844,600.18481 844.57414,600.36118 846.00884,600.57653 C 847.30884,600.84031 848.61044,601.19345 849.75884,601.76403 C 851.71434,602.73559 853.24964,604.14259 854.00884,606.26403 C 853.06144,606.1873 852.17314,606.00313 851.19634,605.98278 C 836.43634,607.49137 822.41724,612.08086 808.10264,617.20153 C 806.78864,616.54843 805.24834,615.91223 804.07134,615.26403 C 803.09154,614.72446 801.96754,614.23428 800.94634,613.70153 C 801.19144,613.59911 801.73314,613.41947 801.94634,613.32653 C 805.58374,611.74101 813.28694,608.46674 821.16514,605.57653 C 829.02714,602.69224 837.14044,600.20488 841.25884,600.10778 z M 763.10264,602.92028 C 764.39324,602.92028 765.77954,603.00521 767.25884,603.20153 C 768.73814,603.39785 770.28984,603.70843 771.91514,604.07653 C 778.52704,605.57405 786.14744,608.3902 793.38384,611.70153 C 789.03284,613.7253 785.15584,615.6259 779.63384,617.88903 C 777.67814,618.69054 775.95914,619.23461 774.07134,619.95153 C 771.98574,619.12081 769.90254,618.27724 767.85264,617.54528 C 762.07914,615.48384 756.48534,613.87631 751.29014,613.07653 C 748.92024,612.71172 746.66094,612.57188 744.47764,612.57653 C 744.81404,610.94219 745.75144,609.33594 747.38384,607.92028 C 748.05374,607.33933 748.83904,606.80519 749.69634,606.29528 C 751.41094,605.27546 753.45334,604.41442 755.72764,603.82653 C 758.00184,603.23864 760.50494,602.92028 763.10264,602.92028 z M 849.19634,609.82653 C 849.49094,609.81334 849.77854,609.82108 850.04014,609.82653 C 851.54714,609.85793 852.99294,609.94382 854.44634,610.01403 C 854.42014,610.39022 854.44904,610.76519 854.38384,611.13903 C 854.08314,612.86223 853.37894,614.54519 852.38384,616.07653 C 851.88634,616.8422 851.29454,617.5588 850.66514,618.23278 C 849.40624,619.58074 847.93594,620.71526 846.35264,621.51403 C 845.56084,621.91342 844.73784,622.22814 843.91514,622.45153 C 843.09244,622.67492 842.26654,622.80495 841.44634,622.82653 C 839.74114,622.8714 838.26954,622.66612 837.04014,622.32653 C 835.85704,621.99977 834.89224,621.53776 834.13384,621.01403 C 835.57524,620.74856 836.69624,619.50055 836.69634,617.98278 C 836.69634,616.27237 835.28174,614.88902 833.57134,614.88903 C 833.41434,614.88903 833.28454,614.89772 833.13384,614.92028 C 832.85214,614.89539 832.54434,614.90983 832.22764,614.95153 C 831.33704,615.21539 830.49474,616.13393 830.38384,617.57653 C 830.32174,618.38308 830.54184,619.21038 831.00884,620.01403 C 831.47584,620.81767 832.19794,621.59738 833.13384,622.26403 C 834.06974,622.93068 835.23884,623.5038 836.63384,623.88903 C 838.02884,624.27426 839.62884,624.46893 841.47764,624.42028 C 842.43444,624.3951 843.38674,624.26485 844.32134,624.01403 C 845.25594,623.76322 846.18844,623.39679 847.07134,622.95153 C 847.95424,622.50627 848.80064,621.9663 849.60264,621.35778 C 850.40454,620.74926 851.16094,620.06712 851.85264,619.32653 C 852.54424,618.58594 853.17504,617.7999 853.72764,616.95153 C 854.28004,616.10316 854.75564,615.19234 855.13384,614.26403 C 855.51204,613.33572 855.77744,612.36944 855.94634,611.38903 C 856.02104,610.9557 855.97994,610.51612 856.00884,610.07653 C 858.30494,610.23973 860.48284,610.5087 862.25884,611.07653 C 863.88744,611.59723 865.19574,612.34756 866.13384,613.38903 C 867.07194,614.4305 867.65964,615.78822 867.79014,617.70153 C 867.85264,618.6189 867.71354,619.48096 867.41514,620.32653 C 867.11654,621.1721 866.65344,621.98331 866.04014,622.76403 C 865.42664,623.54475 864.66174,624.2914 863.79014,624.98278 C 862.91844,625.67416 861.94184,626.31195 860.88384,626.88903 C 858.76784,628.0432 856.34714,628.95892 853.94634,629.54528 C 851.54554,630.13164 849.15784,630.38464 847.10264,630.29528 C 845.05534,630.20627 842.13284,629.66961 838.69634,628.79528 C 835.25984,627.92095 831.32094,626.71526 827.25884,625.29528 C 822.86024,623.75765 818.37374,621.98085 814.10264,620.10778 C 817.81824,618.74351 822.66294,616.91043 829.19634,614.76403 C 836.78084,612.2723 844.77694,610.02445 849.19634,609.82653 z M 744.35264,614.17028 C 751.03014,614.13345 758.91324,616.09523 767.29014,619.07653 C 768.77704,619.60573 770.31064,620.24085 771.82134,620.82653 C 770.40504,621.34209 768.79564,622.00233 767.50884,622.42028 C 766.03104,622.90026 764.73994,623.2666 763.50884,623.57653 C 762.01754,623.84036 760.02904,624.32653 759.16514,624.32653 C 755.61074,624.32653 751.79884,623.05995 748.94634,621.07653 C 746.25924,619.20812 744.55244,616.73191 744.35264,614.17028 z M 742.72764,614.20153 C 742.82744,615.73316 743.30364,617.19354 744.16514,618.51403 C 745.12184,619.98064 746.47344,621.29981 748.04014,622.38903 C 749.60664,623.47825 751.42424,624.37172 753.32134,624.98278 C 755.21834,625.59384 757.20114,625.92028 759.16514,625.92028 C 761.20224,625.92028 764.34804,625.3215 768.13384,624.38903 C 770.38514,623.83452 773.04654,623.00819 775.60264,622.26403 C 775.73914,622.31993 775.87224,622.36406 776.00884,622.42028 C 778.96744,623.63783 781.91284,625.03659 784.88384,626.35778 C 782.84454,627.25995 782.06114,627.66452 779.79014,628.57653 C 770.92374,632.13703 760.67134,635.35778 751.69634,635.35778 C 749.43834,635.35778 747.34324,635.20431 745.41514,634.95153 C 743.48694,634.69875 741.71374,634.33614 740.10264,633.88903 C 736.88014,632.99481 734.29094,631.7724 732.25884,630.45153 C 731.24274,629.7911 730.37094,629.13038 729.63384,628.45153 C 728.89674,627.77268 728.29104,627.08645 727.82134,626.45153 C 726.88194,625.18168 726.47744,624.05229 726.47764,623.45153 C 726.47764,622.549 726.44534,621.56883 726.66514,620.60778 C 726.88474,619.64673 727.36314,618.70136 728.35264,617.79528 C 728.84724,617.34224 729.49264,616.89526 730.32134,616.48278 C 731.97874,615.65783 734.36604,614.96351 737.82134,614.54528 C 739.22694,614.37514 740.95264,614.26641 742.72764,614.20153 z M 798.91514,614.48278 C 800.36524,615.21949 801.92224,615.91705 803.29014,616.67028 C 804.05164,617.0897 805.06624,617.49924 805.88384,617.92028 C 799.53404,620.49762 793.63964,622.93329 786.88384,625.48278 C 783.92884,624.15934 781.00054,622.8148 778.04014,621.57653 C 778.96374,621.29782 779.76744,621.11636 780.69634,620.82653 C 787.95704,618.56119 794.52424,616.20777 798.91514,614.48278 z " id="path4139"/>
  </g>
</svg>
